<svg id="visual" viewBox="0 0 900 600" width="900" height="600" xmlns="http://www.w3.org/2000/svg" xmlns:xlink="http://www.w3.org/1999/xlink" version="1.1"><path d="M0 43L13.7 54C27.3 65 54.7 87 82 93C109.3 99 136.7 89 163.8 85C191 81 218 83 245.2 81C272.3 79 299.7 73 327 73C354.3 73 381.7 79 409 79C436.3 79 463.7 73 491 66C518.3 59 545.7 51 573 49C600.3 47 627.7 51 654.8 60C682 69 709 83 736.2 91C763.3 99 790.7 101 818 94C845.3 87 872.7 71 886.3 63L900 55L900 0L886.3 0C872.7 0 845.3 0 818 0C790.7 0 763.3 0 736.2 0C709 0 682 0 654.8 0C627.7 0 600.3 0 573 0C545.7 0 518.3 0 491 0C463.7 0 436.3 0 409 0C381.7 0 354.3 0 327 0C299.7 0 272.3 0 245.2 0C218 0 191 0 163.8 0C136.7 0 109.3 0 82 0C54.7 0 27.3 0 13.7 0L0 0Z" fill="#9e90fa"></path><path d="M0 169L13.7 202C27.3 235 54.7 301 82 306C109.3 311 136.7 255 163.8 235C191 215 218 231 245.2 239C272.3 247 299.7 247 327 261C354.3 275 381.7 303 409 294C436.3 285 463.7 239 491 217C518.3 195 545.7 197 573 214C600.3 231 627.7 263 654.8 282C682 301 709 307 736.2 311C763.3 315 790.7 317 818 317C845.3 317 872.7 315 886.3 314L900 313L900 53L886.3 61C872.7 69 845.3 85 818 92C790.7 99 763.3 97 736.2 89C709 81 682 67 654.8 58C627.7 49 600.3 45 573 47C545.7 49 518.3 57 491 64C463.7 71 436.3 77 409 77C381.7 77 354.3 71 327 71C299.7 71 272.3 77 245.2 79C218 81 191 79 163.8 83C136.7 87 109.3 97 82 91C54.7 85 27.3 63 13.7 52L0 41Z" fill="#8877f6"></path><path d="M0 319L13.7 335C27.3 351 54.7 383 82 388C109.3 393 136.7 371 163.8 361C191 351 218 353 245.2 347C272.3 341 299.7 327 327 338C354.3 349 381.7 385 409 384C436.3 383 463.7 345 491 338C518.3 331 545.7 355 573 373C600.3 391 627.7 403 654.8 406C682 409 709 403 736.2 401C763.3 399 790.7 401 818 404C845.3 407 872.7 411 886.3 413L900 415L900 311L886.3 312C872.7 313 845.3 315 818 315C790.7 315 763.3 313 736.2 309C709 305 682 299 654.8 280C627.7 261 600.3 229 573 212C545.7 195 518.3 193 491 215C463.7 237 436.3 283 409 292C381.7 301 354.3 273 327 259C299.7 245 272.3 245 245.2 237C218 229 191 213 163.8 233C136.7 253 109.3 309 82 304C54.7 299 27.3 233 13.7 200L0 167Z" fill="#715df2"></path><path d="M0 505L13.7 508C27.3 511 54.7 517 82 516C109.3 515 136.7 507 163.8 510C191 513 218 527 245.2 532C272.3 537 299.7 533 327 537C354.3 541 381.7 553 409 552C436.3 551 463.7 537 491 536C518.3 535 545.7 547 573 544C600.3 541 627.7 523 654.8 516C682 509 709 513 736.2 520C763.3 527 790.7 537 818 539C845.3 541 872.7 535 886.3 532L900 529L900 413L886.3 411C872.7 409 845.3 405 818 402C790.7 399 763.3 397 736.2 399C709 401 682 407 654.8 404C627.7 401 600.3 389 573 371C545.7 353 518.3 329 491 336C463.7 343 436.3 381 409 382C381.7 383 354.3 347 327 336C299.7 325 272.3 339 245.2 345C218 351 191 349 163.8 359C136.7 369 109.3 391 82 386C54.7 381 27.3 349 13.7 333L0 317Z" fill="#614dd5"></path><path d="M0 601L13.7 601C27.3 601 54.7 601 82 601C109.3 601 136.7 601 163.8 601C191 601 218 601 245.2 601C272.3 601 299.7 601 327 601C354.3 601 381.7 601 409 601C436.3 601 463.7 601 491 601C518.3 601 545.7 601 573 601C600.3 601 627.7 601 654.8 601C682 601 709 601 736.2 601C763.3 601 790.7 601 818 601C845.3 601 872.7 601 886.3 601L900 601L900 527L886.3 530C872.7 533 845.3 539 818 537C790.7 535 763.3 525 736.2 518C709 511 682 507 654.8 514C627.7 521 600.3 539 573 542C545.7 545 518.3 533 491 534C463.7 535 436.3 549 409 550C381.7 551 354.3 539 327 535C299.7 531 272.3 535 245.2 530C218 525 191 511 163.8 508C136.7 505 109.3 513 82 514C54.7 515 27.3 509 13.7 506L0 503Z" fill="#513eb8"></path></svg>